<svg id="Capa_1" enable-background="new 0 0 512 512" height="512" viewBox="0 0 512 512" width="512" xmlns="http://www.w3.org/2000/svg"><g><path d="m219.218 464.374c-189.873-96.255-219.218-200.054-219.218-253.374 0-75.703 53.705-135 121-135 76.816 0 115.913 58.286 117.539 60.762 2.271 3.457 3.003 7.69 2.051 11.704l-27.246 114.434 49.365 24.683c6.05 3.032 9.331 9.727 7.998 16.362l-30 150c-.923 4.6-3.94 8.496-8.159 10.547-4.186 2.048-9.156 2.012-13.33-.118z" fill="#ff8fb8"/><path d="m276.933 432.938c-4.585-3.472-6.768-9.243-5.64-14.883l27.744-138.765-49.746-24.873c-6.226-3.12-9.492-10.107-7.881-16.89l30-126.006c.396-1.699 1.099-3.296 2.051-4.761 1.626-2.474 40.723-60.76 117.539-60.76 67.295 0 121 59.297 121 135 0 53.32-29.345 157.119-219.218 253.374-5.121 2.596-11.269 2.056-15.849-1.436z" fill="#ff5f96"/></g></svg>