<svg height="512" viewBox="0 0 58 58" width="512" xmlns="http://www.w3.org/2000/svg"><g id="Page-1" fill="none" fill-rule="evenodd"><g id="029---Chips" fill-rule="nonzero"><path id="Shape" d="m56 29h-54l1 4 .4 2 3.96 19.78c.37190885 1.8706156 2.01277256 3.2184679 3.92 3.22h35.44c1.9072274-.0015321 3.5480911-1.3493844 3.92-3.22l3.96-19.78.4-2z" fill="#e64c3c"/><g fill="#f5efca"><path id="Shape" d="m45 33-4 25h-8l2-25z"/><path id="Shape" d="m25 58h-8l-4-25h10z"/><path id="Shape" d="m58 31c-.0081672 1.1011688-.8988312 1.9918328-2 2h-54c-1.10320187-.0032948-1.9967052-.8967981-2-2-.00282307-.5305905.2101411-1.0395388.59-1.41.3704612-.3798589.87940947-.5928231 1.41-.59h54c1.1032019.0032948 1.9967052.8967981 2 2z"/></g><path id="Shape" d="m16.45 24.08c-1.075747 1.8113929-2.3946873 3.4667976-3.92 4.92h-9.69c-2.18-2.12-1.97-5.11-1.62-6.99.44-2.32 3.74-2.46 6.07-1.15.47647717 2.4244589 2.8237324 4.0071795 5.25 3.54 1.03-.1823454 2.0317948-.4983477 2.98-.94.2949963.2283323.6057716.4355158.93.62z" fill="#f3d55b"/><path id="Shape" d="m17.95 29h-5.42c1.5253127-1.4532024 2.844253-3.1086071 3.92-4.92.3637258.2153106.7450992.3993066 1.14.55.1670219.0623992.3372657.115809.51.16 1.41 2.1.75 3.43-.15 4.21z" fill="#f29c1f"/><path id="Shape" d="m51.08 18.88c-.9763688.3755368-1.9989129.6177183-3.04.72 1.23-3.03 1.09-6.75 1.19-7.65.0850708-.7885856.5628421-1.4807897 1.27-1.84l.12-.05s1.83-.67 2.94 2.38c1.34 3.66-.65 5.77-2.48 6.44z" fill="#f0c419"/><path id="Shape" d="m19.01 10.66c-.868057.5846023-1.8095334 1.0519781-2.8 1.39-1.84.65-4.72.29-6.02-3.39-1.08-3.06.76-3.71.76-3.71l.11-.03c.7769834-.1812615 1.5926145.04907877 2.16.61.64.62 2.91 3.58 5.79 5.13z" fill="#f0c419"/><path id="Shape" d="m28.92 6.07c-.7754689.56061717-1.1541544 1.52099476-.97 2.46-.8067851 1.10645223-1.8894014 1.9821992-3.14 2.54-.1529485.0750868-.309844.1418509-.47.2-.01.01-.01.01-.01 0-.7201807-.5945548-1.5694836-1.012357-2.48-1.22-.07-.02-.12-.03-.12-.03-.7853609-.08244988-1.5404858.3269073-1.9 1.03-.2798902-.1157401-.553591-.2459149-.82-.39-2.88-1.55-5.15-4.51-5.79-5.13-.5673855-.56092123-1.3830166-.7912615-2.16-.61 1.3026985-.36846967 2.6801762-.38227897 3.99-.04.8977104.10236805 1.806897.01723822 2.67-.25 1.4624838-.63110505 2.7746364-1.5649487 3.85-2.74 2.01-2.09 5.9-2.78 6.77-.33.5533245 1.4347859.752288 2.98189808.58 4.51z" fill="#f3d55b"/><path id="Shape" d="m15.52 23.46c-.9482052.4416523-1.95.7576546-2.98.94-2.4262676.4671795-4.77352283-1.1155411-5.25-3.54-.06943354-.2401826-.12617868-.4838529-.17-.73-.6-3.19 1.31-3.55 1.31-3.55s.05-.01.12-.02c.79497194-.0505417 1.5619059.3028494 2.04.94 1.241604 2.0894139 2.7697872 3.9945938 4.54 5.66h.01c.12.1.25.2.38.3z" fill="#f29c1f"/><path id="Shape" d="m26.18 19.85c-.43 1.97-1.73 3.92-4.98 4.91-.2767885.087564-.5614766.1478509-.85.18-1.3605433.177626-2.7403414-.1266372-3.9-.86-.3242284-.1844842-.6350037-.3916677-.93-.62-.13-.1-.26-.2-.38-.3h-.01c-1.7702128-1.6654062-3.298396-3.5705861-4.54-5.66-.4780941-.6371506-1.24502806-.9905417-2.04-.94 1.34486634-.1653405 2.709433.0350262 3.95.58.8689889.2396383 1.7786119.2941475 2.67.16 1.433863-.3638257 2.7781051-1.0172295 3.95-1.92.3362722 1.736147 1.693853 3.0937278 3.43 3.43 1.0236989.2261755 2.0726651.3169514 3.12.27.1548248.2664012.3251162.5235079.51.77z" fill="#f0c419"/><path id="Shape" d="m44.06 9.24c-.9801676.37073494-2.006266.60623293-3.05.7 1.25-3.02 1.13-6.74 1.24-7.64.083502-.78955748.5669711-1.48076734 1.28-1.83.07-.03.11-.05.11-.05s1.84-.66 2.93 2.4c1.32 3.66-.68 5.76-2.51 6.42z" fill="#f0c419"/><path id="Shape" d="m43.53.47c-.7130289.34923266-1.196498 1.04044252-1.28 1.83-.11.9.01 4.62-1.24 7.64-.5993943 1.7368283-1.9241897 3.1273161-3.63 3.81-1.4588469-.9904778-3.2752033-1.3004985-4.98-.85-.46.12-.89.21-1.3.28-1.4546464-1.1045187-2.5279587-2.6358242-3.07-4.38-.0312453-.08857955-.0579467-.1786969-.08-.27-.1841544-.93900524.1945311-1.89938283.97-2.46 1.2902322-1.01548387 2.9282482-1.48246212 4.56-1.3 1.5749038.2291845 3.1805674.12009483 4.71-.32.8381616-.33751215 1.5974135-.84481501 2.23-1.49.7908114-1.09749751 1.8660943-1.95841534 3.11-2.49z" fill="#f3d55b"/><path id="Shape" d="m25.67 19.08c-1.0473349.0469514-2.0963011-.0438245-3.12-.27-1.736147-.3362722-3.0937278-1.693853-3.43-3.43-.1707908-.8530134-.1571524-1.7326911.04-2.58.1098996-.6206644.3373053-1.2146343.67-1.75.3595142-.7030927 1.1146391-1.11244988 1.9-1.03 0 0 .05.01.12.03.7041846.232145 1.2521269.7912697 1.47 1.5.0252322.0395336.0422375.0837473.05.13.23.87.64 4.58 2.3 7.4z" fill="#f29c1f"/><path id="Shape" d="m50.5 10.11c-.7071579.3592103-1.1849292 1.0514144-1.27 1.84-.1.9.04 4.62-1.19 7.65-.4638643 1.270706-1.29162 2.3766989-2.38 3.18-.961953-.4210902-1.8687049-.9584246-2.7-1.6-2.09-1.58-5.52-1.8-6.51.06-.1107434.2066036-.1883554.4293165-.23.66-.1579167.8168572-.2283144 1.64822-.21 2.48h-.01c-.0148667-.8308418-.2165147-1.6476875-.59-2.39-.0764619-.1685472-.163295-.3321941-.26-.49.3443689-.2209304.6659468-.475513.96-.76 1.1787863-1.2875926 1.9601598-2.88854 2.25-4.61.1156171-.5012357.0445097-1.02743-.2-1.48.7561478-.1994328 1.5421398-.260415 2.32-.18 1.5770849.2177365 3.182419.0984442 4.71-.35.8374712-.3379047 1.5940209-.849087 2.22-1.5.7852721-1.0995712 1.8528316-1.9667474 3.09-2.51z" fill="#f3d55b"/><path id="Shape" d="m53.81 22.56c-.7949719-.0505417-1.5619059.3028494-2.04.94-1.2052227 2.0170353-2.6711956 3.8663131-4.36 5.5h-9.46c-1.2604622-1.2035803-1.9633007-2.8773504-1.94-4.62-.0183144-.83178.0520833-1.6631428.21-2.48.0416446-.2306835.1192566-.4533964.23-.66.99-1.86 4.42-1.64 6.51-.06.8312951.6415754 1.738047 1.1789098 2.7 1.6.4902197.2268424 1.003078.4011472 1.53.52.8913881.1341475 1.8010111.0796383 2.67-.16 1.240567-.5449738 2.6051337-.7453405 3.95-.58z" fill="#f0c419"/><path id="Shape" d="m55.24 26.13c-.1565261 1.0556194-.5992096 2.0481989-1.28 2.87h-6.55c1.6888044-1.6336869 3.1547773-3.4829647 4.36-5.5.4780941-.6371506 1.2450281-.9905417 2.04-.94.07.01.12.02.12.02s1.91.36 1.31 3.55z" fill="#f29c1f"/><path id="Shape" d="m31.04 28.83c-.02.06-.04.12-.06.17h-11.6c-.02-.03-.03-.07-.05-.1-.0275759-.0548254-.0509756-.1116534-.07-.17-.3105174-1.0218987.1036546-2.1249903 1.01-2.69 1.0300082-.7951493 2.2989038-1.2181146 3.6-1.2 1.4289275.0701849 2.8566084-.1615151 4.19-.68.7174672-.37407 1.3505278-.8914099 1.86-1.52.06-.08.12-.16.18-.25.1047622.0271524.2119483.0439002.32.05.3655528.0357131.7327147.0524023 1.1.05.1950991 2.1253103.0328547 4.2682887-.48 6.34z" fill="#f0c419"/><path id="Shape" d="m38.36 16.13c-.2898402 1.72146-1.0712137 3.3224074-2.25 4.61-.2940532.284487-.6156311.5390696-.96.76-1.0917754.6672319-2.350645 1.01056-3.63.99-.3672853.0024023-.7344472-.0142869-1.1-.05-.1080517-.0060998-.2152378-.0228476-.32-.05-1.6031539-.2643835-3.0236473-1.1848052-3.92-2.54-.1848838-.2464921-.3551752-.5035988-.51-.77-1.66-2.82-2.07-6.53-2.3-7.4-.0077625-.0462527-.0247678-.0904664-.05-.13-.2178731-.7087303-.7658154-1.267855-1.47-1.5.9105164.207643 1.7598193.6254452 2.48 1.22 0 .01 0 .01.01 0 .37.31.67.59.94.81.7140389.552046 1.5345688.9503946 2.41 1.17 1.1327565.164758 2.2849591.1411057 3.41-.07.41-.07.84-.16 1.3-.28 1.7047967-.4504985 3.5211531-.1404778 4.98.85.3198267.2424203.5854984.5489646.78.9.2445097.45257.3156171.9787643.2 1.48z" fill="#f0c419"/><path id="Shape" d="m36 24.38c-.0023603 1.5374456-.9010272 2.9323328-2.3 3.57-.8446009.4078211-1.7388211.7036534-2.66.88.5128547-2.0717113.6750991-4.2146897.48-6.34 1.279355.02056 2.5382246-.3227681 3.63-.99.096705.1578059.1835381.3214528.26.49.3734853.7423125.5751333 1.5591582.59 2.39z" fill="#f29c1f"/><path id="Shape" d="m55 33-.4 2h-9.92l.32-2z" fill="#c03a2b"/><path id="Shape" d="m45 33-.32 2h-9.84l.16-2z" fill="#f9eab0"/><path id="Shape" d="m35 33-.16 2h-11.68l-.16-2z" fill="#c03a2b"/><path id="Shape" d="m23.16 35h-9.84l-.32-2h10z" fill="#f9eab0"/><path id="Shape" d="m13.32 35h-9.92l-.4-2h10z" fill="#c03a2b"/></g></g></svg>