<?xml version="1.0" encoding="iso-8859-1"?>
<!-- Generator: Adobe Illustrator 19.0.0, SVG Export Plug-In . SVG Version: 6.00 Build 0)  -->
<svg version="1.1" id="Capa_1" xmlns="http://www.w3.org/2000/svg" xmlns:xlink="http://www.w3.org/1999/xlink" x="0px" y="0px"
	 viewBox="0 0 512 512" style="enable-background:new 0 0 512 512;" xml:space="preserve">
<path style="fill:#F9D53D;" d="M165.788,289.736c-6.005-12.814-9.361-27.118-9.361-42.206c0-54.993,44.58-99.573,99.573-99.573
	s99.573,44.58,99.573,99.573c0,15.089-3.355,29.393-9.362,42.208L165.788,289.736z"/>
<g>
	<path style="fill:#EAC321;" d="M355.571,247.534c0,15.082-3.356,29.386-9.364,42.205h-39.934c3.158-9.692,4.861-20.042,4.861-30.79
		c0-54.995-44.586-99.571-99.571-99.571c-0.648,0-1.294,0.01-1.942,0.02c13.846-7.312,29.634-11.446,46.378-11.446
		C310.995,147.954,355.571,192.538,355.571,247.534z"/>
	<path style="fill:#EAC321;" d="M256,110.201c4.126,0,7.47-3.344,7.47-7.47V71.585c0-4.126-3.344-7.47-7.47-7.47
		c-4.127,0-7.47,3.344-7.47,7.47v31.145C248.53,106.856,251.873,110.201,256,110.201z"/>
	<path style="fill:#EAC321;" d="M148.327,150.424c1.459,1.459,3.37,2.188,5.284,2.188c1.911,0,3.824-0.73,5.283-2.188
		c2.917-2.917,2.917-7.648,0-10.565l-22.022-22.023c-2.917-2.917-7.647-2.918-10.566,0c-2.917,2.917-2.917,7.648,0,10.565
		L148.327,150.424z"/>
	<path style="fill:#EAC321;" d="M80.842,255.001h31.145c4.127,0,7.47-3.344,7.47-7.47s-3.344-7.47-7.47-7.47H80.842
		c-4.126,0-7.47,3.344-7.47,7.47S76.716,255.001,80.842,255.001z"/>
	<path style="fill:#EAC321;" d="M400.013,255.001h31.145c4.126,0,7.47-3.344,7.47-7.47s-3.344-7.47-7.47-7.47h-31.145
		c-4.126,0-7.47,3.344-7.47,7.47S395.887,255.001,400.013,255.001z"/>
	<path style="fill:#EAC321;" d="M358.39,147.746c1.911,0,3.825-0.73,5.283-2.189l22.022-22.023c2.917-2.917,2.917-7.648,0-10.565
		c-2.918-2.917-7.648-2.917-10.566,0l-22.022,22.023c-2.917,2.917-2.917,7.648,0,10.565
		C354.565,147.016,356.478,147.746,358.39,147.746z"/>
</g>
<g>
	<path style="fill:#1DC6DD;" d="M475.641,332.491H156.427c-4.126,0-7.47,3.344-7.47,7.47s3.344,7.47,7.47,7.47h319.214
		c4.126,0,7.47-3.344,7.47-7.47S479.768,332.491,475.641,332.491z"/>
	<path style="fill:#1DC6DD;" d="M111.987,332.491H36.359c-4.126,0-7.47,3.344-7.47,7.47s3.344,7.47,7.47,7.47h75.628
		c4.127,0,7.47-3.344,7.47-7.47S116.113,332.491,111.987,332.491z"/>
	<path style="fill:#1DC6DD;" d="M57.775,390.189c0,4.126,3.344,7.47,7.47,7.47h381.508c4.126,0,7.47-3.344,7.47-7.47
		c0-4.126-3.344-7.47-7.47-7.47H65.246C61.12,382.718,57.775,386.063,57.775,390.189z"/>
	<path style="fill:#1DC6DD;" d="M473.649,432.945H38.351c-4.126,0-7.47,3.344-7.47,7.47c0,4.126,3.344,7.47,7.47,7.47h435.298
		c4.126,0,7.47-3.344,7.47-7.47C481.12,436.29,477.775,432.945,473.649,432.945z"/>
	<path style="fill:#1DC6DD;" d="M504.515,297.287H7.485c-4.135,0-7.485-3.351-7.485-7.485c0-4.134,3.35-7.485,7.485-7.485h497.029
		c4.135,0,7.485,3.351,7.485,7.485C512,293.935,508.65,297.287,504.515,297.287z"/>
</g>
<g>
</g>
<g>
</g>
<g>
</g>
<g>
</g>
<g>
</g>
<g>
</g>
<g>
</g>
<g>
</g>
<g>
</g>
<g>
</g>
<g>
</g>
<g>
</g>
<g>
</g>
<g>
</g>
<g>
</g>
</svg>
