<svg height="512" viewBox="0 0 512 512" width="512" xmlns="http://www.w3.org/2000/svg"><g id="flat"><path d="m200 40h32.71744a40 40 0 0 1 34.78128 20.24492l15.76433 27.75508v56l11.59159 28.979a16 16 0 0 1 -4.8605 18.43615l-43.2199 34.57585h-46.77424z" fill="#d14521"/><path d="m216 48a24 24 0 0 0 -24-24h-47.27866a40 40 0 0 0 -35.77706 22.11143l-20.94428 41.88857.35622 64-6.06371 15.15929a32 32 0 0 0 12.75129 39.02044l41.31242 25.82027h79.64378z" fill="#ef5e3b"/><path d="m376 400v48h-112v40h-160v-48h-56l-24-56 28.29-106.06982a31.97956 31.97956 0 0 1 16.6001-20.38038l35.1099-17.5498 32-16 9.48-14.22 6.52-9.78h64l6.52 9.78 9.48 14.22 32 16 35.10986 17.5498a31.97956 31.97956 0 0 1 16.60014 20.38038l30.99024 116.21z" fill="#548aff"/><path d="m232 304-19.2 14.4a47.99993 47.99993 0 0 1 -28.8 9.6 47.99993 47.99993 0 0 1 -28.8-9.6l-19.2-14.4h-32v72l96 16 16 32h48v-120z" fill="#ffc431"/><path d="m184 256-32 24-16-56 9.48-14.22z" fill="#7dafff"/><path d="m232 224-16 56-32-24 38.52-46.22z" fill="#7dafff"/><path d="m200 392 32-16h32v16l-24 16h24l40-8 8 16-40 24h-72z" fill="#ffd9c7"/><path d="m136 224v80h-32v-64z" fill="#ffa100"/><path d="m264 240v64h-32v-80z" fill="#ffa100"/><path d="m384 320a40.00237 40.00237 0 1 1 -7.31006-23.0498 40.002 40.002 0 0 1 7.31006 23.0498z" fill="#08d175"/><path d="m384 320a40.02085 40.02085 0 0 1 -48.68994 39.0498 40.01079 40.01079 0 0 1 41.37988-62.0996 39.84867 39.84867 0 0 1 7.31006 23.0498z" fill="#02c26a"/><path d="m392 216a31.984 31.984 0 1 1 -2.83008-13.16992 32.00409 32.00409 0 0 1 2.83008 13.16992z" fill="#ffd873"/><path d="m392 216a32.01035 32.01035 0 0 1 -45.16992 29.16992 32.01035 32.01035 0 0 1 42.33984-42.33984 31.77882 31.77882 0 0 1 2.83008 13.16992z" fill="#ffc431"/><path d="m488 272a39.99787 39.99787 0 1 1 -4.87012-19.12988 40.002 40.002 0 0 1 4.87012 19.12988z" fill="#ef5e3b"/><path d="m488 272a40.00127 40.00127 0 0 1 -59.12988 35.12988 40.00127 40.00127 0 0 1 54.25976-54.25976 39.70373 39.70373 0 0 1 4.87012 19.12988z" fill="#e04f2b"/><path d="m104 440h160v48h-160z" fill="#ffc431"/><path d="m152 200-6.52 9.78 38.52 46.22 38.52-46.22-6.52-9.78z" fill="#ffbfa1"/><path d="m240 80v80a56 56 0 0 1 -55.99994 56h-.00012a56 56 0 0 1 -55.99994-56v-80l32-16 10.34315 10.34315a19.31369 19.31369 0 0 0 13.65685 5.65685 19.31369 19.31369 0 0 0 13.65684-5.65685l10.34316-10.34315z" fill="#ffece3"/><circle cx="160" cy="112" fill="#91591c" r="8"/><circle cx="208" cy="112" fill="#91591c" r="8"/><circle cx="184" cy="144" fill="#ffc431" r="16"/><path d="m184 192a46.32144 46.32144 0 0 1 -32.9707-13.65625l-4.68653-4.68652 11.31446-11.31446 4.68652 4.68653a30.62563 30.62563 0 0 0 43.3125 0l4.68652-4.68653 11.31446 11.31446-4.68653 4.68652a46.32144 46.32144 0 0 1 -32.9707 13.65625z" fill="#ef5e3b"/><path d="m376 400 32-16h32v16l-24 16h24l40-8 8 16-40 24h-72z" fill="#ffd9c7"/></g></svg>