<svg id="Capa_1" enable-background="new 0 0 512 512" height="512" viewBox="0 0 512 512" width="512" xmlns="http://www.w3.org/2000/svg" xmlns:xlink="http://www.w3.org/1999/xlink"><linearGradient id="SVGID_1_" gradientUnits="userSpaceOnUse" x1="256" x2="256" y1="496" y2="16"><stop offset="0" stop-color="#5558ff"/><stop offset="1" stop-color="#00c0ff"/></linearGradient><g><g><g><path d="m355.019 319.088c-28.77-21.646-63.01-33.088-99.019-33.088-36.008 0-70.248 11.441-99.018 33.088-6.62 4.981-7.949 14.385-2.968 21.005 4.975 6.612 14.377 7.954 21.004 2.968 23.529-17.704 51.533-27.061 80.982-27.061 29.45 0 57.453 9.357 80.981 27.06 6.62 4.981 16.024 3.652 21.005-2.968s3.652-16.024-2.967-21.004zm-69.019-183.088h90c8.271 0 15 6.729 15 15 0 8.284 6.716 15 15 15s15-6.716 15-15c0-24.813-20.187-45-45-45h-30c-8.271 0-15-6.729-15-15s6.729-15 15-15h120c24.813 0 45-20.187 45-45 0-8.284-6.716-15-15-15s-15 6.716-15 15c0 8.271-6.729 15-15 15h-180c-24.813 0-45 20.187-45 45s20.187 45 45 45zm0-60h17.58c-1.665 4.695-2.58 9.742-2.58 15s.915 10.305 2.58 15h-17.58c-8.271 0-15-6.729-15-15s6.729-15 15-15zm211 390h-16v-15c0-111.041-80.067-202.291-184.087-221.296 2.616-5.701 4.087-12.032 4.087-18.704 0-24.813-20.187-45-45-45s-45 20.187-45 45c0 6.672 1.471 13.003 4.087 18.704-103.992 18.999-184.087 110.201-184.087 221.296v15h-16c-8.284 0-15 6.716-15 15s6.716 15 15 15h482c8.284 0 15-6.716 15-15s-6.716-15-15-15zm-241-270c8.271 0 15 6.729 15 15s-6.729 15-15 15-15-6.729-15-15 6.729-15 15-15zm195 270h-390v-15c0-107.523 87.477-195 195-195s195 87.477 195 195z" fill="url(#SVGID_1_)"/></g></g></g></svg>