<?xml version="1.0" encoding="iso-8859-1"?>
<!-- Generator: Adobe Illustrator 19.0.0, SVG Export Plug-In . SVG Version: 6.00 Build 0)  -->
<svg version="1.1" id="Capa_1" xmlns="http://www.w3.org/2000/svg" xmlns:xlink="http://www.w3.org/1999/xlink" x="0px" y="0px"
	 viewBox="0 0 511.999 511.999" style="enable-background:new 0 0 511.999 511.999;" xml:space="preserve">
<path id="SVGCleanerId_0" style="fill:#FE9923;" d="M441.546,238.022c-37.798-33-117.258-95.812-247.453-108.113
	c-44.097-4.199-77.996-30.598-83.997-52.796c-6.599-24.599,29.999-55.499,74.997-41.698c11.7,3.6,19.5-5.7,19.5-14.999
	c0-5.7-3.3-11.4-10.501-13.8c-14.399-4.499-29.099-6.599-44.098-6.599c-38.1,0-72.596,14.098-99.296,37.499
	C19.798,65.113,0,105.313,0,150.011c0,40.197,15.6,77.996,44.097,105.895L251.69,465.498c5.7,5.999,14.999,5.999,20.999,0.298
	c5.7-5.7,5.999-14.999,0.599-20.998c-39.298-41.999-49.497-116.395,1.8-167.694c2.1-2.1,4.501-4.501,6.901-6.301
	c46.798-39.897,116.994-38.098,161.394,5.101l1.5,1.5L441.546,238.022z"/>
<g>
	<path id="SVGCleanerId_0_1_" style="fill:#FE9923;" d="M441.546,238.022c-37.798-33-117.258-95.812-247.453-108.113
		c-44.097-4.199-77.996-30.598-83.997-52.796c-6.599-24.599,29.999-55.499,74.997-41.698c11.7,3.6,19.5-5.7,19.5-14.999
		c0-5.7-3.3-11.4-10.501-13.8c-14.399-4.499-29.099-6.599-44.098-6.599c-38.1,0-72.596,14.098-99.296,37.499
		C19.798,65.113,0,105.313,0,150.011c0,40.197,15.6,77.996,44.097,105.895L251.69,465.498c5.7,5.999,14.999,5.999,20.999,0.298
		c5.7-5.7,5.999-14.999,0.599-20.998c-39.298-41.999-49.497-116.395,1.8-167.694c2.1-2.1,4.501-4.501,6.901-6.301
		c46.798-39.897,116.994-38.098,161.394,5.101l1.5,1.5L441.546,238.022z"/>
</g>
<path style="fill:#FEA832;" d="M441.543,238.021c-37.798-32.999-117.255-95.806-247.45-108.116
	c-44.098-4.19-77.997-30.589-83.997-52.788c-6.6-24.599,29.999-55.508,74.997-41.698c11.7,3.59,19.499-5.7,19.499-14.999
	c0-5.7-3.3-11.41-10.5-13.809c-14.399-4.49-29.099-6.59-44.098-6.59c-38.099,0-72.597,14.089-99.296,37.499
	C19.799,65.108,0,105.317,0,150.015c0,40.188,15.599,77.987,44.098,105.886L251.69,465.502c5.7,5.99,14.999,5.99,20.999,0.29
	c5.7-5.7,6-14.999,0.6-20.989c-39.298-42.008-49.498-116.395,1.8-167.703c2.1-2.1,4.5-4.5,6.9-6.3c0.16-0.13,0.31-0.26,0.47-0.39
	c46.798-39.488,116.675-37.559,160.924,5.5l1.5,1.5L441.543,238.021z"/>
<path style="fill:#FE9923;" d="M0,150.015c0,40.188,15.599,77.987,44.098,105.886L251.69,465.502c5.7,5.99,14.999,5.99,20.999,0.29
	c5.7-5.7,6-14.999,0.6-20.989c-39.298-42.008-49.498-116.395,1.8-167.703c2.1-2.1,4.5-4.5,6.9-6.3c0.16-0.13,0.31-0.26,0.47-0.39
	c0.205-0.173,0.414-0.339,0.62-0.51L50.698,37.519C19.799,65.108,0,105.317,0,150.015z"/>
<path style="fill:#FCBF29;" d="M472.013,264.037L256.189,44.114c-17.398-17.698-38.998-30.598-62.098-37.499
	C136.495-11.083,82.797,23.715,79.498,66.312c-0.601,6.301,0,12.601,1.8,18.899c8.699,32.099,44.397,60.298,87.596,70.498
	c7.2,2.1,14.699,3.3,22.199,4.199c121.795,11.4,198.892,66.798,233.69,97.696L472.013,264.037z"/>
<path style="fill:#896748;" d="M460.782,449.593c-46.198,53.698-129.895,74.997-198.292,5.7
	c-44.398-47.698-55.498-131.085,2.1-188.683c2.1-2.1,4.5-4.51,6.9-6.31c0.16-0.14,0.33-0.28,0.49-0.42
	c24.519-21.319,55.228-32.869,88.007-32.869c35.999,0,69.897,14.089,95.396,39.598C514.48,325.398,503.08,400.995,460.782,449.593z"
	/>
<path style="fill:#73553A;" d="M460.782,449.593c0.309-0.355,0.61-0.716,0.916-1.074L272.563,259.384
	c-0.194,0.167-0.391,0.328-0.584,0.496c-0.16,0.14-0.33,0.28-0.49,0.42c-2.4,1.8-4.8,4.21-6.9,6.31
	c-57.598,57.598-46.498,140.985-2.1,188.683C330.887,524.59,414.584,503.291,460.782,449.593z"/>
<path style="fill:#FEDB41;" d="M370.785,359.597c0.05-0.1,0.1-0.19,0.14-0.29c2.84-5.65,2.18-12.68-2.54-17.409
	c-4.7-4.4-11.7-5.36-17.339-2.56c-0.12,0.05-0.24,0.11-0.36,0.17 M370.926,359.307c2.84-5.65,2.18-12.68-2.54-17.409
	c-4.7-4.4-11.7-5.36-17.339-2.56 M261.5,249.351c-0.17,0.15-0.34,0.31-0.51,0.46c-2.4,1.8-4.5,3.9-6.9,6.29
	c-69.897,69.897-46.198,170.393-0.3,211.792c60.288,60.898,161.664,58.808,218.361-6.87c0.01-0.01,0.02-0.02,0.03-0.03
	C598.017,320.478,397.384,127.286,261.5,249.351z M450.902,439.673c-0.01,0.01-0.01,0.01-0.02,0.02c-0.6,0.91-1.5,2.1-2.4,3.01
	c-25.499,26.989-66.297,34.789-96.596,17.689c-71.397-40.798-58.798-113.086-22.799-142.494c0.11-0.1,0.22-0.21,0.33-0.3
	c4.7-4.33,9.69-7.25,14.969-9.59c20.999-8.41,43.198-3.31,63.897,15.589c15.899,13.809,14.999,31.799,12.899,41.098
	c-2.39,11.03-8.33,21.779-16.059,28.979c-0.05,0.04-0.09,0.09-0.14,0.13c-10.5,10.19-24.599,13.499-37.199,1.8
	c-9.3-8.41-8.4-23.709,0.6-32.409c1.2-1.19,1.8-2.4,2.4-3.6c0.05-0.1,0.1-0.19,0.14-0.29c2.84-5.65,2.18-12.68-2.54-17.409
	c-4.7-4.4-11.7-5.36-17.339-2.56c-0.12,0.05-0.24,0.11-0.36,0.17c-1.5,0.59-2.7,1.49-3.6,2.39
	c-20.699,20.699-21.599,55.508,0.3,75.897c25.499,23.699,56.998,17.999,78.897-2.7c0.03-0.03,0.05-0.05,0.08-0.08
	c11.66-11.09,20.629-26.649,24.219-44.018c5.7-26.699-2.4-52.188-22.199-69.897C398.984,275,364.486,267.5,332.987,280.4
	c-9.14,3.83-17.689,9.11-25.099,15.559c-0.14,0.12-0.27,0.23-0.4,0.35c-45.898,40.188-58.498,125.995,12.899,179.083
	c-20.399-7.2-35.699-18.899-47.098-30.589c-39.298-42.008-49.498-116.395,1.8-167.703c2.1-2.1,4.5-4.5,6.9-6.3
	c0.16-0.13,0.31-0.26,0.47-0.39c22.409-18.929,50.118-28.399,77.527-28.399c30.599,0,61.498,11.7,84.897,35.089
	C490.771,322.998,491.081,391.985,450.902,439.673z"/>
<g>
	<path style="fill:#FCBF29;" d="M347.386,417.794c25.499,23.699,56.998,17.999,78.897-2.7c0.03-0.03,0.05-0.05,0.08-0.08
		c0.311-0.296,0.613-0.608,0.92-0.91L406,392.822c-0.291,0.286-0.58,0.577-0.876,0.854c-0.05,0.04-0.09,0.09-0.14,0.13
		c-10.5,10.19-24.599,13.499-37.199,1.8c-9.3-8.41-8.4-23.709,0.6-32.409c1.2-1.19,1.8-2.4,2.4-3.6c0.05-0.1,0.1-0.19,0.14-0.29
		c0.177-0.352,0.34-0.709,0.49-1.071l-19.354-19.353c-0.342,0.139-0.681,0.29-1.015,0.455c-0.12,0.05-0.24,0.11-0.36,0.17
		c-1.5,0.59-2.7,1.49-3.6,2.39C326.387,362.596,325.487,397.405,347.386,417.794z"/>
	<path style="fill:#FCBF29;" d="M451.783,438.604c-0.294,0.356-0.582,0.715-0.881,1.069c-0.01,0.01-0.01,0.01-0.02,0.02
		c-0.6,0.91-1.5,2.1-2.4,3.01c-25.499,26.989-66.297,34.789-96.596,17.689c-71.397-40.798-58.798-113.086-22.799-142.494
		c0.11-0.1,0.22-0.21,0.33-0.3c0.24-0.221,0.483-0.422,0.724-0.636l-21.572-21.572c-0.225,0.192-0.458,0.375-0.681,0.569
		c-0.14,0.12-0.27,0.23-0.4,0.35c-45.898,40.188-58.498,125.995,12.899,179.083c-20.399-7.2-35.699-18.899-47.098-30.589
		c-39.298-42.008-49.498-116.395,1.8-167.703c2.1-2.1,4.5-4.5,6.9-6.3c0.16-0.13,0.31-0.26,0.47-0.39
		c0.206-0.174,0.419-0.333,0.625-0.504l-21.036-21.036c-0.182,0.163-0.366,0.318-0.549,0.481c-0.17,0.15-0.34,0.31-0.51,0.46
		c-2.4,1.8-4.5,3.9-6.9,6.29c-69.897,69.897-46.198,170.393-0.3,211.792c60.288,60.898,161.664,58.808,218.361-6.87
		c0.01-0.01,0.02-0.02,0.03-0.03c0.316-0.353,0.617-0.708,0.929-1.061L451.783,438.604z"/>
</g>
<g>
</g>
<g>
</g>
<g>
</g>
<g>
</g>
<g>
</g>
<g>
</g>
<g>
</g>
<g>
</g>
<g>
</g>
<g>
</g>
<g>
</g>
<g>
</g>
<g>
</g>
<g>
</g>
<g>
</g>
</svg>
