<svg height="512" viewBox="0 0 38 59" width="512" xmlns="http://www.w3.org/2000/svg"><g id="098---Selfies" fill="none"><path id="Shape" d="m27 48.951s-1.005 2.011-4.988 4.266c-.624027.354549-1.0102318 1.0162873-1.012 1.734v2.049c0 1.1045695-.8954305 2-2 2h-12c-1.1045695 0-2-.8954305-2-2v-1c0-1.832-1.291-3.383-2.208-4.871-1.742-2.827-2.525-2.959-2.765-6.178-.124-1.654.221-6.164.264-7.833.024-.923-.021-4.079-.056-6.979-.00984568-1.3670013.52410993-2.6818509 1.48425818-3.6549412.96014826-.9730903 2.26773127-1.5246017 3.63474182-1.5330588 2.67-.006 3.463 1.515 5.646 2.137 1.3905293.3821085 2.8078753.6588921 4.24.828.9979646.1079021 1.755636.9482285 1.76 1.952v.177s0 4.393-6 4.393c-.6.149-5-.5-6-2.5" fill="#f9c795"/><path id="Shape" d="m29.63 1.48c-4.87.88-22.96 6.79-22.96 46.02l-.17.11c-.32325907-.4935388-.49690031-1.0700277-.5-1.66v-41.95c0-1.65685425 1.34314575-3 3-3h19c.5780263.00103452 1.1436634.16760249 1.63.48z" fill="#3b97d3"/><path id="Shape" d="m31 4v41.95c0 1.6568542-1.3431458 3-3 3h-19c-1.00579.0027254-1.94541976-.5009161-2.5-1.34l.17-.11c0-48.563 18.09-45.14 22.96-46.02.2912333.18482103.5455568.42218964.75.7.4046685.52010694.6230004 1.16101686.62 1.82z" fill="#2980ba"/><path id="Shape" d="m28 49.95h-19c-2.209139 0-4-1.790861-4-4v-41.95c0-2.209139 1.790861-4 4-4h19c2.209139 0 4 1.790861 4 4v41.95c0 2.209139-1.790861 4-4 4zm-19-47.95c-1.1045695 0-2 .8954305-2 2v41.95c0 1.1045695.8954305 2 2 2h19c1.1045695 0 2-.8954305 2-2v-41.95c0-1.1045695-.8954305-2-2-2z" fill="#464f5d"/><path id="Shape" d="m26 1-1.447 2.894c-.3386882.67778095-1.0313083 1.10597427-1.789 1.106h-8.528c-.7576917-.00002573-1.4503118-.42821905-1.789-1.106l-1.447-2.894z" fill="#464f5d"/><path id="Shape" d="m24 46h-11c-.5522847 0-1-.4477153-1-1s.4477153-1 1-1h11c.5522847 0 1 .4477153 1 1s-.4477153 1-1 1z" fill="#464f5d"/><path id="Shape" d="m24 18c0 .19-.01.38-.02.56l-10.73.378c1.27-1.071 7.75-4.888 8.47-5.878 1.5050376 1.1882696 2.3521948 3.023777 2.28 4.94z" fill="#a56a43"/><path id="Shape" d="m23.98 18.56c-.19 3.38-2.16 6.44-5.48 6.44-3.19 0-5.14-2.84-5.45-6.06 2.1137514-.292371 4.0936236-1.2040168 5.69-2.62z" fill="#f9c795"/><path id="Shape" d="m26 32.8v5.2c0 .5522847-.4477153 1-1 1h-13c-.5522847 0-1-.4477153-1-1v-3.56l1.9-6.9c1.4690498-1.6888192 3.62317-2.6225164 5.86-2.54 4.1094587.248558 7.29773 3.683436 7.24 7.8z" fill="#d75e72"/><path id="Shape" d="m23 34v5h-2v-5c0-.5522847.4477153-1 1-1s1 .4477153 1 1z" fill="#802d40"/><path id="Shape" d="m16 34v5h-2v-5c0-.5522847.4477153-1 1-1s1 .4477153 1 1z" fill="#802d40"/><path id="Shape" d="m21.72 13.06c-.859158 1.202116-1.8596641 2.2966294-2.98 3.26-1.5963764 1.4159832-3.5762486 2.327629-5.69 2.62-.03-.31-.05-.62-.05-.94 0-3.59 2.46-6 5.5-6 1.1602503-.0075347 2.2911062.3647347 3.22 1.06z" fill="#cb8252"/><g fill="#f9c795"><path id="Shape" d="m32.02 24.433 4.089-1.69c1.5408745-.6130361 2.2930361-2.3591255 1.68-3.9s-2.3591255-2.2930361-3.9-1.68l-1.889.75"/><path id="Shape" d="m38 30.951c0 1.6568542-1.3431458 3-3 3h-3c-1.6568542 0-3-1.3431458-3-3s1.3431458-3 3-3h3c1.6568542 0 3 1.3431458 3 3z"/><path id="Shape" d="m37 36.951c0 1.6568542-1.3431458 3-3 3h-2c-.3415766.0021256-.6806042-.0588994-1-.18-1.3649694-.4952814-2.1792883-1.897032-1.9333986-3.3281097.2458896-1.4310777 1.4813937-2.480625 2.9333986-2.4918903h2c1.6568542 0 3 1.3431458 3 3z"/><path id="Shape" d="m36.03 42.951c0 1.6568542-1.3431458 3-3 3h-1.03c-1.6568542 0-3-1.3431458-3-3s1.3431458-3 3-3h1.03c1.6568542 0 3 1.3431458 3 3z"/><path id="Shape" d="m4.973 24.969c2.67-.006 3.844 1.5 6.027 2.119 1.3905293.3821085 2.8078753.6588921 4.24.828.9979646.1079021 1.755636.9482285 1.76 1.952v.177s0 4.393-6 4.393c-.6.149-5-.5-6-2.5l-2.013-3.267z"/></g></g></svg>